<?xml version="1.0" encoding="utf-8"?>
<!-- Generator: Adobe Illustrator 25.4.1, SVG Export Plug-In . SVG Version: 6.00 Build 0)  -->
<svg version="1.1" id="Layer_2" xmlns="http://www.w3.org/2000/svg" xmlns:xlink="http://www.w3.org/1999/xlink" x="0px" y="0px"
	 viewBox="0 0 600 600" style="enable-background:new 0 0 600 600;" xml:space="preserve">
<style type="text/css">
	.st0{fill:#231F20;}
	.st1{fill:#FFFFFF;}
	.st2{fill:#070707;}
</style>
<circle class="st0" cx="302.4" cy="298.01" r="173.3"/>
<circle class="st1" cx="301.37" cy="298.34" r="127.59"/>
<circle class="st2" cx="301.06" cy="298.34" r="117.06"/>
<path class="st1" d="M331.52,276.8l39.79-14.69c6.46-2.38,9.34-9.84,6.1-15.85c-7.72-14.33-25.16-36.86-58.9-38.1
	c-6.65-0.24-12.17,5.08-12.17,11.66v41.03c0,3.5,2.21,6.66,5.56,7.79c2.75,0.93,6.05,2.58,8.81,5.5
	C323.49,277.08,327.71,278.21,331.52,276.8z"/>
<path class="st1" d="M293.42,264.46l-2.86-42.32c-0.46-6.87-6.8-11.74-13.48-10.33c-15.93,3.36-42.47,13.73-53.18,45.75
	c-2.11,6.31,1.44,13.11,7.75,14.96l39.36,11.59c3.36,0.99,7.01-0.24,9.05-3.14c1.67-2.37,4.18-5.08,7.76-6.9
	C291.42,272.24,293.7,268.51,293.42,264.46z"/>
<path class="st1" d="M262.75,295.98l-41.8-7.18c-6.78-1.16-13.01,3.85-13.21,10.67c-0.48,16.27,3.35,44.5,31.95,62.46
	c5.64,3.54,13.08,1.69,16.37-4.01l20.52-35.53c1.75-3.03,1.41-6.87-0.92-9.53c-1.91-2.18-3.95-5.26-4.88-9.17
	C269.84,299.75,266.75,296.67,262.75,295.98z"/>
<path class="st1" d="M291.37,331.29l-23.84,35.08c-3.87,5.69-1.88,13.43,4.24,16.45c14.61,7.17,41.9,15.37,70.08-3.23
	c5.56-3.67,6.95-11.2,3.12-16.56l-23.85-33.39c-2.03-2.85-5.67-4.13-9.06-3.11c-2.77,0.84-6.42,1.42-10.36,0.65
	C297.74,326.4,293.65,327.93,291.37,331.29z"/>
<path class="st1" d="M334.95,321.18l26.92,32.77c4.37,5.32,12.36,5.6,16.97,0.57c11.01-11.99,26.58-35.85,16.69-68.14
	c-1.95-6.37-8.79-9.83-15-7.67l-38.77,13.45c-3.31,1.15-5.56,4.27-5.54,7.81c0.02,2.9-0.45,6.56-2.31,10.12
	C332.06,313.69,332.37,318.04,334.95,321.18z"/>
<circle class="st1" cx="304.15" cy="301.73" r="12.73"/>
</svg>
